<svg xmlns="http://www.w3.org/2000/svg" xmlns:xlink="http://www.w3.org/1999/xlink" version="1.0" x="0px" y="0px" viewBox="0 0 100 125" enable-background="new 0 0 100 100" xml:space="preserve"><path fill="none" stroke="#000000" stroke-linecap="round" stroke-linejoin="round" stroke-miterlimit="10" d="M10,10v8.304h6.229  l1.611-3.223c0.256-0.513,0.932-0.931,1.505-0.931h10.378c0.571,0,1.246,0.418,1.502,0.931l1.613,3.223h47.751V10H10z"/><rect x="74.879" y="12.594" fill="none" stroke="#000000" stroke-linecap="round" stroke-linejoin="round" stroke-miterlimit="10" width="3.115" height="3.116"/><rect x="69.688" y="12.594" fill="none" stroke="#000000" stroke-linecap="round" stroke-linejoin="round" stroke-miterlimit="10" width="3.116" height="3.116"/><rect x="64.5" y="12.594" fill="none" stroke="#000000" stroke-linecap="round" stroke-linejoin="round" stroke-miterlimit="10" width="3.112" height="3.116"/><rect x="43.218" y="32.837" fill="none" stroke="#000000" stroke-linecap="round" stroke-linejoin="round" stroke-miterlimit="10" width="14.53" height="14.532"/><rect x="61.904" y="32.837" fill="none" stroke="#000000" stroke-linecap="round" stroke-linejoin="round" stroke-miterlimit="10" width="14.529" height="14.532"/><rect x="43.218" y="22.456" fill="none" stroke="#000000" stroke-linecap="round" stroke-linejoin="round" stroke-miterlimit="10" width="33.215" height="6.228"/><rect x="14.153" y="22.456" fill="none" stroke="#000000" stroke-linecap="round" stroke-linejoin="round" stroke-miterlimit="10" width="24.912" height="24.913"/><polygon fill="none" stroke="#000000" stroke-linecap="round" stroke-linejoin="round" stroke-miterlimit="10" points="33.886,56.7   26.607,63.979 33.888,71.26 36.073,69.077 32.524,65.525 43.079,65.525 43.079,62.436 32.524,62.436 36.072,58.89 "/><path fill="none" stroke="#000000" stroke-linecap="round" stroke-linejoin="round" stroke-miterlimit="10" d="M51.886,90  c-2.34,0-4.237-1.896-4.237-4.235v-25.41c0-2.342,1.897-4.236,4.235-4.236l33.881,0.001c2.341,0,4.235,1.897,4.235,4.235v25.41  C90,88.104,88.105,90,85.767,90H51.886z"/><path fill="none" stroke="#000000" stroke-linecap="round" stroke-linejoin="round" stroke-miterlimit="10" d="M69.886,64.59  c0,2.921-2.373,5.287-5.298,5.287c-2.923,0-5.29-2.366-5.29-5.287c0-2.925,2.367-5.296,5.29-5.296  C67.513,59.294,69.886,61.665,69.886,64.59z"/><path fill="none" stroke="#000000" stroke-linecap="round" stroke-linejoin="round" stroke-miterlimit="10" d="M79.493,65.322  c-1.21-1.929-3.183-1.929-4.392,0L59.679,90h26.088C88.105,90,90,88.104,90,85.765v-3.627L79.493,65.322z"/><path fill="none" stroke="#000000" stroke-linecap="round" stroke-linejoin="round" stroke-miterlimit="10" d="M57.829,72.689  c-0.939-1.502-2.477-1.502-3.414,0l-6.767,10.82v2.255c0,2.339,1.897,4.235,4.237,4.235h7.793l4.485-7.176L57.829,72.689z"/><path fill="none" stroke="#000000" stroke-linecap="round" stroke-linejoin="round" stroke-miterlimit="10" d="M77.3,77.292  c3.006,0,5.754-1.049,7.93-2.788l-5.736-9.182c-1.21-1.929-3.183-1.929-4.392,0l-5.737,9.182  C71.539,76.243,74.292,77.292,77.3,77.292z"/><polygon fill="none" stroke="#000000" stroke-linecap="round" stroke-linejoin="round" stroke-miterlimit="10" points="  32.524,65.525 36.073,69.077 33.888,71.26 26.607,63.979 33.886,56.7 36.072,58.89 32.524,62.436 39.065,62.436 39.065,51.522   14.153,51.522 14.153,76.438 39.065,76.438 39.065,65.525 "/><path fill="none" stroke="#000000" stroke-linecap="round" stroke-linejoin="round" stroke-miterlimit="10" d="M47.648,60.354  c0-2.342,1.897-4.236,4.235-4.236l28.705,0.001V18.304H32.838l-1.613-3.223c-0.256-0.513-0.931-0.931-1.502-0.931H19.344  c-0.573,0-1.249,0.418-1.505,0.931l-1.611,3.223h-6.225v62.283h37.646V60.354z"/><text x="0" y="115" fill="#000000" font-size="5px" font-weight="bold" font-family="'Helvetica Neue', Helvetica, Arial-Unicode, Arial, Sans-serif">Created by Danil Polshin</text><text x="0" y="120" fill="#000000" font-size="5px" font-weight="bold" font-family="'Helvetica Neue', Helvetica, Arial-Unicode, Arial, Sans-serif">from the Noun Project</text></svg>