<svg width="59" height="59" viewBox="0 0 59 59" fill="none" xmlns="http://www.w3.org/2000/svg">
<g clip-path="url(#clip0_815_248)">
<path d="M5.53125 4.60938H7.375V17.5156H5.53125V4.60938Z" fill="url(#paint0_linear_815_248)"/>
<path d="M11.0625 4.60938H12.9062V17.5156H11.0625V4.60938Z" fill="url(#paint1_linear_815_248)"/>
<path d="M6.45312 10.1406H11.9844V11.9844H6.45312V10.1406Z" fill="url(#paint2_linear_815_248)"/>
<path d="M6.45312 10.1406H11.9844V11.9844H6.45312V10.1406Z" fill="url(#paint3_linear_815_248)"/>
<path d="M14.75 4.60938H22.125V6.45312H14.75V4.60938Z" fill="url(#paint4_linear_815_248)"/>
<path d="M17.5156 5.53125H19.3594V17.5156H17.5156V5.53125Z" fill="url(#paint5_linear_815_248)"/>
<path d="M31.3438 17.5157H29.5V10.6155L28.52 13.2299C28.4544 13.406 28.3365 13.5579 28.1821 13.6651C28.0277 13.7723 27.8442 13.8297 27.6563 13.8297C27.4683 13.8297 27.2848 13.7723 27.1304 13.6651C26.976 13.5579 26.8581 13.406 26.7925 13.2299L25.8125 10.6155V17.5157H23.9688V5.53133C23.9684 5.31508 24.0441 5.10558 24.1825 4.93948C24.321 4.77338 24.5135 4.66124 24.7262 4.62268C24.939 4.58413 25.1586 4.6216 25.3466 4.72855C25.5345 4.8355 25.6789 5.00512 25.7544 5.20775L27.6563 10.2808L29.5581 5.21052C29.6335 5.00811 29.7777 4.83863 29.9653 4.73166C30.153 4.62469 30.3723 4.58701 30.5849 4.62521C30.7975 4.6634 30.9899 4.77505 31.1286 4.94066C31.2673 5.10626 31.3435 5.31532 31.3438 5.53133V17.5157Z" fill="url(#paint6_linear_815_248)"/>
<path d="M39.6398 17.5156H35.9523C35.5862 17.5263 35.2218 17.4621 34.8814 17.3269C34.541 17.1917 34.2319 16.9884 33.9729 16.7294C33.7139 16.4704 33.5106 16.1613 33.3754 15.8209C33.2402 15.4805 33.176 15.1161 33.1867 14.75V4.60938H35.0304V14.75C35.0183 14.8741 35.0337 14.9993 35.0758 15.1167C35.1178 15.2341 35.1853 15.3407 35.2735 15.4288C35.3616 15.517 35.4682 15.5845 35.5856 15.6266C35.703 15.6686 35.8282 15.6841 35.9523 15.6719H39.6398V17.5156Z" fill="url(#paint7_linear_815_248)"/>
<path d="M14.75 26.7344C14.5055 26.7344 14.271 26.6372 14.0981 26.4644C13.9253 26.2915 13.8281 26.057 13.8281 25.8125V22.125H0.921875C0.677379 22.125 0.442896 22.0279 0.270011 21.855C0.0971259 21.6821 0 21.4476 0 21.2031V0.921875C0 0.677379 0.0971259 0.442896 0.270011 0.270011C0.442896 0.0971259 0.677379 0 0.921875 0L43.3281 0C43.5726 0 43.8071 0.0971259 43.98 0.270011C44.1529 0.442896 44.25 0.677379 44.25 0.921875V21.2031C44.25 21.4476 44.1529 21.6821 43.98 21.855C43.8071 22.0279 43.5726 22.125 43.3281 22.125H19.741L15.4018 26.4643C15.2289 26.6372 14.9945 26.7343 14.75 26.7344ZM1.84375 20.2812H14.75C14.9945 20.2812 15.229 20.3784 15.4019 20.5513C15.5747 20.7241 15.6719 20.9586 15.6719 21.2031V23.5871L18.7076 20.5514C18.8805 20.3785 19.1149 20.2813 19.3594 20.2812H42.4062V1.84375H1.84375V20.2812Z" fill="url(#paint8_linear_815_248)"/>
<path d="M35.0312 59C34.7868 59 34.5523 58.9029 34.3794 58.73C34.2065 58.5571 34.1094 58.3226 34.1094 58.0781V54.3906H13.8281C13.5836 54.3906 13.3491 54.2935 13.1763 54.1206C13.0034 53.9477 12.9062 53.7132 12.9062 53.4688V31.3438C12.9062 31.0993 13.0034 30.8648 13.1763 30.6919C13.3491 30.519 13.5836 30.4219 13.8281 30.4219H58.0781C58.3226 30.4219 58.5571 30.519 58.73 30.6919C58.9029 30.8648 59 31.0993 59 31.3438V53.4688C59 53.7132 58.9029 53.9477 58.73 54.1206C58.5571 54.2935 58.3226 54.3906 58.0781 54.3906H40.0223L35.683 58.7299C35.5102 58.9028 35.2757 58.9999 35.0312 59ZM14.75 52.5469H35.0312C35.2757 52.5469 35.5102 52.644 35.6831 52.8169C35.856 52.9898 35.9531 53.2243 35.9531 53.4688V55.8527L38.9889 52.817C39.1617 52.6441 39.3961 52.5469 39.6406 52.5469H57.1562V32.2656H14.75V52.5469Z" fill="url(#paint9_linear_815_248)"/>
<path d="M47.0156 43.3281C46.104 43.3281 45.2128 43.0578 44.4548 42.5513C43.6968 42.0448 43.106 41.3249 42.7571 40.4827C42.4082 39.6404 42.317 38.7136 42.4948 37.8195C42.6727 36.9254 43.1117 36.1041 43.7563 35.4594C44.4009 34.8148 45.2223 34.3758 46.1164 34.1979C47.0105 34.0201 47.9373 34.1114 48.7796 34.4602C49.6218 34.8091 50.3417 35.3999 50.8482 36.1579C51.3547 36.9159 51.625 37.8071 51.625 38.7188H49.7813C49.7813 38.1718 49.6191 37.6371 49.3152 37.1823C49.0113 36.7274 48.5793 36.373 48.074 36.1636C47.5686 35.9543 47.0126 35.8996 46.4761 36.0063C45.9396 36.113 45.4468 36.3764 45.06 36.7632C44.6733 37.1499 44.4099 37.6427 44.3031 38.1792C44.1964 38.7157 44.2512 39.2718 44.4605 39.7771C44.6698 40.2825 45.0243 40.7144 45.4791 41.0183C45.9339 41.3222 46.4686 41.4844 47.0156 41.4844V43.3281Z" fill="url(#paint10_linear_815_248)"/>
<path d="M47.0156 50.7031C45.7936 50.7017 44.622 50.2156 43.7579 49.3515C42.8938 48.4873 42.4077 47.3158 42.4062 46.0938H44.25C44.25 46.6407 44.4122 47.1754 44.7161 47.6302C45.02 48.0851 45.4519 48.4395 45.9573 48.6489C46.4626 48.8582 47.0187 48.9129 47.5552 48.8062C48.0916 48.6995 48.5844 48.4361 48.9712 48.0493C49.358 47.6626 49.6214 47.1698 49.7281 46.6333C49.8348 46.0968 49.7801 45.5407 49.5707 45.0354C49.3614 44.53 49.0069 44.0981 48.5521 43.7942C48.0973 43.4903 47.5626 43.3281 47.0156 43.3281V41.4844C48.2381 41.4844 49.4105 41.97 50.2749 42.8344C51.1394 43.6989 51.625 44.8713 51.625 46.0938C51.625 47.3162 51.1394 48.4886 50.2749 49.3531C49.4105 50.2175 48.2381 50.7031 47.0156 50.7031Z" fill="url(#paint11_linear_815_248)"/>
<path d="M35.9531 43.3281C35.0415 43.3281 34.1503 43.0578 33.3923 42.5513C32.6343 42.0448 32.0435 41.3249 31.6946 40.4827C31.3457 39.6404 31.2545 38.7136 31.4323 37.8195C31.6102 36.9254 32.0492 36.1041 32.6938 35.4594C33.3384 34.8148 34.1598 34.3758 35.0539 34.1979C35.948 34.0201 36.8748 34.1114 37.7171 34.4602C38.5593 34.8091 39.2792 35.3999 39.7857 36.1579C40.2922 36.9159 40.5625 37.8071 40.5625 38.7188H38.7188C38.7188 38.1718 38.5566 37.6371 38.2527 37.1823C37.9488 36.7274 37.5168 36.373 37.0115 36.1636C36.5061 35.9543 35.9501 35.8996 35.4136 36.0063C34.8771 36.113 34.3843 36.3764 33.9975 36.7632C33.6108 37.1499 33.3474 37.6427 33.2406 38.1792C33.1339 38.7157 33.1887 39.2718 33.398 39.7771C33.6073 40.2825 33.9618 40.7144 34.4166 41.0183C34.8714 41.3222 35.4061 41.4844 35.9531 41.4844V43.3281Z" fill="url(#paint12_linear_815_248)"/>
<path d="M35.9531 50.7031C34.7311 50.7017 33.5595 50.2156 32.6954 49.3515C31.8313 48.4873 31.3452 47.3158 31.3438 46.0938H33.1875C33.1875 46.6407 33.3497 47.1754 33.6536 47.6302C33.9575 48.0851 34.3894 48.4395 34.8948 48.6489C35.4001 48.8582 35.9562 48.9129 36.4927 48.8062C37.0291 48.6995 37.5219 48.4361 37.9087 48.0493C38.2955 47.6626 38.5589 47.1698 38.6656 46.6333C38.7723 46.0968 38.7176 45.5407 38.5082 45.0354C38.2989 44.53 37.9444 44.0981 37.4896 43.7942C37.0348 43.4903 36.5001 43.3281 35.9531 43.3281V41.4844C37.1756 41.4844 38.348 41.97 39.2124 42.8344C40.0769 43.6989 40.5625 44.8713 40.5625 46.0938C40.5625 47.3162 40.0769 48.4886 39.2124 49.3531C38.348 50.2175 37.1756 50.7031 35.9531 50.7031Z" fill="url(#paint13_linear_815_248)"/>
<path d="M24.8906 50.7031C23.6686 50.7017 22.497 50.2156 21.6329 49.3515C20.7688 48.4873 20.2827 47.3158 20.2812 46.0938V38.7188C20.2812 37.4963 20.7669 36.3239 21.6313 35.4594C22.4957 34.595 23.6681 34.1094 24.8906 34.1094C26.1131 34.1094 27.2855 34.595 28.1499 35.4594C29.0144 36.3239 29.5 37.4963 29.5 38.7188H27.6562C27.6562 37.9853 27.3649 37.2818 26.8462 36.7632C26.3276 36.2445 25.6241 35.9531 24.8906 35.9531C24.1571 35.9531 23.4537 36.2445 22.935 36.7632C22.4164 37.2818 22.125 37.9853 22.125 38.7188V46.0938C22.125 46.8272 22.4164 47.5307 22.935 48.0493C23.4537 48.568 24.1571 48.8594 24.8906 48.8594C25.6241 48.8594 26.3276 48.568 26.8462 48.0493C27.3649 47.5307 27.6562 46.8272 27.6562 46.0938H29.5C29.4985 47.3158 29.0124 48.4873 28.1483 49.3515C27.2842 50.2156 26.1127 50.7017 24.8906 50.7031Z" fill="url(#paint14_linear_815_248)"/>
<path d="M50.7031 27.6562H20.2812V25.8125H50.7031C51.0715 25.832 51.4398 25.7739 51.7841 25.6418C52.1285 25.5097 52.4413 25.3067 52.7021 25.0458C52.9629 24.785 53.1659 24.4723 53.298 24.1279C53.4301 23.7835 53.4883 23.4152 53.4688 23.0469V22.125H55.3125V23.0469C55.3357 23.6584 55.2323 24.2681 55.0088 24.8378C54.7854 25.4076 54.4467 25.925 54.014 26.3577C53.5812 26.7904 53.0638 27.1291 52.4941 27.3526C51.9244 27.576 51.3147 27.6794 50.7031 27.6562Z" fill="url(#paint15_linear_815_248)"/>
<path d="M55.3125 16.5935H53.4687V14.7498C53.4882 14.381 53.4298 14.0122 53.2973 13.6675C53.1649 13.3228 52.9613 13.0098 52.6999 12.749C52.4385 12.4881 52.1252 12.2852 51.7802 12.1534C51.4352 12.0216 51.0663 11.964 50.6976 11.9841H46.0938V10.1404H50.7031C51.3147 10.1172 51.9244 10.2206 52.4941 10.4441C53.0638 10.6675 53.5812 11.0062 54.014 11.4389C54.4467 11.8717 54.7854 12.3891 55.0088 12.9588C55.2323 13.5285 55.3357 14.1382 55.3125 14.7498V16.5935Z" fill="url(#paint16_linear_815_248)"/>
<path d="M11.0624 44.25H8.2968C7.56296 44.2778 6.83128 44.1538 6.14761 43.8857C5.46394 43.6175 4.84301 43.2111 4.32373 42.6918C3.80446 42.1725 3.39802 41.5516 3.12989 40.8679C2.86177 40.1843 2.73773 39.4526 2.76555 38.7188V37.7969H4.6093V38.7188C4.58982 39.2082 4.67188 39.6964 4.85031 40.1526C5.02873 40.6088 5.29966 41.0231 5.64603 41.3695C5.99241 41.7159 6.40674 41.9868 6.86294 42.1652C7.31914 42.3437 7.80733 42.4257 8.2968 42.4062H11.0624V44.25Z" fill="url(#paint17_linear_815_248)"/>
<path d="M4.6093 32.2655H2.76555V31.3437C2.73773 30.6098 2.86177 29.8782 3.12989 29.1945C3.39802 28.5108 3.80446 27.8899 4.32373 27.3706C4.84301 26.8513 5.46394 26.4449 6.14761 26.1768C6.83128 25.9086 7.56296 25.7846 8.2968 25.8124H11.0624V27.6562H8.2968C7.80733 27.6367 7.31914 27.7188 6.86294 27.8972C6.40674 28.0756 5.99241 28.3465 5.64603 28.6929C5.29966 29.0393 5.02873 29.4536 4.85031 29.9098C4.67188 30.366 4.58982 30.8542 4.6093 31.3437V32.2655Z" fill="url(#paint18_linear_815_248)"/>
<path d="M54.3906 23.0469C53.6613 23.0469 52.9484 22.8306 52.342 22.4254C51.7356 22.0202 51.2629 21.4443 50.9838 20.7705C50.7047 20.0967 50.6317 19.3553 50.774 18.64C50.9163 17.9247 51.2675 17.2676 51.7832 16.7519C52.2989 16.2362 52.9559 15.885 53.6712 15.7427C54.3865 15.6004 55.128 15.6735 55.8018 15.9526C56.4756 16.2317 57.0515 16.7043 57.4567 17.3107C57.8619 17.9171 58.0781 18.6301 58.0781 19.3594C58.0781 20.3374 57.6896 21.2753 56.9981 21.9668C56.3065 22.6584 55.3686 23.0469 54.3906 23.0469ZM54.3906 17.5156C54.026 17.5156 53.6695 17.6238 53.3663 17.8264C53.0631 18.0289 52.8268 18.3169 52.6872 18.6538C52.5477 18.9907 52.5112 19.3614 52.5823 19.7191C52.6534 20.0767 52.829 20.4053 53.0869 20.6631C53.3448 20.921 53.6733 21.0966 54.0309 21.1677C54.3886 21.2388 54.7593 21.2023 55.0962 21.0628C55.4331 20.9232 55.7211 20.6869 55.9237 20.3837C56.1262 20.0805 56.2344 19.724 56.2344 19.3594C56.2344 18.8704 56.0401 18.4014 55.6944 18.0556C55.3486 17.7099 54.8796 17.5156 54.3906 17.5156Z" fill="url(#paint19_linear_815_248)"/>
<path d="M3.6875 38.7188C2.95818 38.7188 2.24524 38.5025 1.63884 38.0973C1.03243 37.6921 0.559794 37.1162 0.280696 36.4424C0.00159772 35.7686 -0.0714271 35.0272 0.0708559 34.3119C0.213139 33.5966 0.564339 32.9395 1.08005 32.4238C1.59575 31.9081 2.2528 31.5569 2.96811 31.4146C3.68341 31.2723 4.42484 31.3453 5.09865 31.6244C5.77245 31.9035 6.34836 32.3762 6.75355 32.9826C7.15873 33.589 7.375 34.3019 7.375 35.0313C7.375 36.0092 6.9865 36.9472 6.29496 37.6387C5.60342 38.3302 4.66549 38.7188 3.6875 38.7188ZM3.6875 33.1875C3.32284 33.1875 2.96637 33.2956 2.66317 33.4982C2.35997 33.7008 2.12365 33.9888 1.9841 34.3257C1.84455 34.6626 1.80804 35.0333 1.87918 35.391C1.95032 35.7486 2.12592 36.0771 2.38377 36.335C2.64163 36.5928 2.97015 36.7684 3.3278 36.8396C3.68546 36.9107 4.05617 36.8742 4.39307 36.7347C4.72998 36.5951 5.01793 36.3588 5.22052 36.0556C5.42312 35.7524 5.53125 35.3959 5.53125 35.0313C5.53125 34.5423 5.337 34.0733 4.99123 33.7275C4.64546 33.3818 4.17649 33.1875 3.6875 33.1875Z" fill="url(#paint20_linear_815_248)"/>
</g>
<defs>
<linearGradient id="paint0_linear_815_248" x1="6.45312" y1="4.60937" x2="6.45313" y2="17.5156" gradientUnits="userSpaceOnUse">
<stop stop-color="#0E21A0"/>
<stop offset="1" stop-color="#EC53B0"/>
</linearGradient>
<linearGradient id="paint1_linear_815_248" x1="11.9844" y1="4.60937" x2="11.9844" y2="17.5156" gradientUnits="userSpaceOnUse">
<stop stop-color="#0E21A0"/>
<stop offset="1" stop-color="#EC53B0"/>
</linearGradient>
<linearGradient id="paint2_linear_815_248" x1="9.21875" y1="10.1406" x2="9.21875" y2="11.9844" gradientUnits="userSpaceOnUse">
<stop stop-color="#0E21A0"/>
<stop offset="1" stop-color="#EC53B0"/>
</linearGradient>
<linearGradient id="paint3_linear_815_248" x1="9.21875" y1="10.1406" x2="9.21875" y2="11.9844" gradientUnits="userSpaceOnUse">
<stop stop-color="#0E21A0"/>
<stop offset="1" stop-color="#EC53B0"/>
</linearGradient>
<linearGradient id="paint4_linear_815_248" x1="18.4375" y1="4.60938" x2="18.4375" y2="6.45312" gradientUnits="userSpaceOnUse">
<stop stop-color="#0E21A0"/>
<stop offset="1" stop-color="#EC53B0"/>
</linearGradient>
<linearGradient id="paint5_linear_815_248" x1="18.4375" y1="5.53125" x2="18.4375" y2="17.5156" gradientUnits="userSpaceOnUse">
<stop stop-color="#0E21A0"/>
<stop offset="1" stop-color="#EC53B0"/>
</linearGradient>
<linearGradient id="paint6_linear_815_248" x1="27.6563" y1="4.60791" x2="27.6563" y2="17.5157" gradientUnits="userSpaceOnUse">
<stop stop-color="#0E21A0"/>
<stop offset="1" stop-color="#EC53B0"/>
</linearGradient>
<linearGradient id="paint7_linear_815_248" x1="36.4127" y1="4.60937" x2="36.4127" y2="17.5168" gradientUnits="userSpaceOnUse">
<stop stop-color="#0E21A0"/>
<stop offset="1" stop-color="#EC53B0"/>
</linearGradient>
<linearGradient id="paint8_linear_815_248" x1="22.125" y1="0" x2="22.125" y2="26.7344" gradientUnits="userSpaceOnUse">
<stop stop-color="#0E21A0"/>
<stop offset="1" stop-color="#EC53B0"/>
</linearGradient>
<linearGradient id="paint9_linear_815_248" x1="35.9531" y1="30.4219" x2="35.9531" y2="59" gradientUnits="userSpaceOnUse">
<stop stop-color="#0E21A0"/>
<stop offset="1" stop-color="#EC53B0"/>
</linearGradient>
<linearGradient id="paint10_linear_815_248" x1="47.0156" y1="34.1094" x2="47.0156" y2="43.3281" gradientUnits="userSpaceOnUse">
<stop stop-color="#0E21A0"/>
<stop offset="1" stop-color="#EC53B0"/>
</linearGradient>
<linearGradient id="paint11_linear_815_248" x1="47.0156" y1="41.4844" x2="47.0156" y2="50.7031" gradientUnits="userSpaceOnUse">
<stop stop-color="#0E21A0"/>
<stop offset="1" stop-color="#EC53B0"/>
</linearGradient>
<linearGradient id="paint12_linear_815_248" x1="35.9531" y1="34.1094" x2="35.9531" y2="43.3281" gradientUnits="userSpaceOnUse">
<stop stop-color="#0E21A0"/>
<stop offset="1" stop-color="#EC53B0"/>
</linearGradient>
<linearGradient id="paint13_linear_815_248" x1="35.9531" y1="41.4844" x2="35.9531" y2="50.7031" gradientUnits="userSpaceOnUse">
<stop stop-color="#0E21A0"/>
<stop offset="1" stop-color="#EC53B0"/>
</linearGradient>
<linearGradient id="paint14_linear_815_248" x1="24.8906" y1="34.1094" x2="24.8906" y2="50.7031" gradientUnits="userSpaceOnUse">
<stop stop-color="#0E21A0"/>
<stop offset="1" stop-color="#EC53B0"/>
</linearGradient>
<linearGradient id="paint15_linear_815_248" x1="37.7985" y1="22.125" x2="37.7985" y2="27.6594" gradientUnits="userSpaceOnUse">
<stop stop-color="#0E21A0"/>
<stop offset="1" stop-color="#EC53B0"/>
</linearGradient>
<linearGradient id="paint16_linear_815_248" x1="50.7047" y1="10.1372" x2="50.7047" y2="16.5935" gradientUnits="userSpaceOnUse">
<stop stop-color="#0E21A0"/>
<stop offset="1" stop-color="#EC53B0"/>
</linearGradient>
<linearGradient id="paint17_linear_815_248" x1="6.91207" y1="37.7969" x2="6.91207" y2="44.2538" gradientUnits="userSpaceOnUse">
<stop stop-color="#0E21A0"/>
<stop offset="1" stop-color="#EC53B0"/>
</linearGradient>
<linearGradient id="paint18_linear_815_248" x1="6.91207" y1="25.8086" x2="6.91207" y2="32.2655" gradientUnits="userSpaceOnUse">
<stop stop-color="#0E21A0"/>
<stop offset="1" stop-color="#EC53B0"/>
</linearGradient>
<linearGradient id="paint19_linear_815_248" x1="54.3906" y1="15.6719" x2="54.3906" y2="23.0469" gradientUnits="userSpaceOnUse">
<stop stop-color="#0E21A0"/>
<stop offset="1" stop-color="#EC53B0"/>
</linearGradient>
<linearGradient id="paint20_linear_815_248" x1="3.6875" y1="31.3438" x2="3.6875" y2="38.7188" gradientUnits="userSpaceOnUse">
<stop stop-color="#0E21A0"/>
<stop offset="1" stop-color="#EC53B0"/>
</linearGradient>
<clipPath id="clip0_815_248">
<rect width="59" height="59" fill="white"/>
</clipPath>
</defs>
</svg>
