<svg width="682" height="682" viewBox="0 0 682 682" fill="none" xmlns="http://www.w3.org/2000/svg">
<g clip-path="url(#clip0_1109_68)">
<path d="M680.665 200.314C679.069 164.112 673.215 139.224 664.829 117.657C656.177 94.7654 642.867 74.2702 625.429 57.2325C608.392 39.9297 587.761 26.4846 565.134 17.9684C543.443 9.58208 518.685 3.72781 482.483 2.13166C446.011 0.400336 434.432 0 341.929 0C249.425 0 237.846 0.400336 201.509 1.99648C165.307 3.59263 140.419 9.4521 118.858 17.8332C95.9607 26.4846 75.4655 39.7945 58.4278 57.2325C41.125 74.2702 27.6851 94.9006 19.1637 117.527C10.7774 139.224 4.92312 163.977 3.32697 200.179C1.59565 236.651 1.19531 248.229 1.19531 340.733C1.19531 433.237 1.59565 444.816 3.1918 481.153C4.78794 517.354 10.6474 542.243 19.0337 563.809C27.6851 586.701 41.125 607.196 58.4278 624.234C75.4655 641.537 96.0959 654.982 118.723 663.498C140.419 671.884 165.172 677.739 201.379 679.335C237.711 680.936 249.295 681.331 341.799 681.331C434.302 681.331 445.881 680.936 482.218 679.335C518.42 677.739 543.308 671.884 564.869 663.498C610.658 645.795 646.86 609.593 664.563 563.809C672.944 542.113 678.804 517.354 680.4 481.153C681.996 444.816 682.397 433.237 682.397 340.733C682.397 248.229 682.261 236.651 680.665 200.314ZM619.31 478.491C617.844 511.765 612.254 529.734 607.596 541.713C596.147 571.395 572.59 594.952 542.908 606.401C530.929 611.059 512.831 616.648 479.686 618.109C443.749 619.711 432.971 620.106 342.064 620.106C251.156 620.106 240.243 619.711 204.436 618.109C171.162 616.648 153.193 611.059 141.214 606.401C126.443 600.942 112.998 592.29 102.085 580.977C90.7719 569.929 82.1205 556.619 76.6614 541.848C72.0029 529.869 66.4138 511.765 64.9528 478.626C63.3515 442.689 62.9563 431.906 62.9563 340.998C62.9563 250.091 63.3515 239.178 64.9528 203.376C66.4138 170.101 72.0029 152.133 76.6614 140.154C82.1205 125.378 90.7719 111.938 102.221 101.02C113.264 89.7066 126.573 81.0552 141.35 75.6012C153.328 70.9428 171.432 65.3536 204.571 63.8875C240.508 62.2913 251.291 61.891 342.194 61.891C433.236 61.891 444.014 62.2913 479.821 63.8875C513.096 65.3536 531.064 70.9428 543.043 75.6012C557.814 81.0552 571.259 89.7066 582.172 101.02C593.485 112.068 602.137 125.378 607.596 140.154C612.254 152.133 617.844 170.231 619.31 203.376C620.906 239.313 621.306 250.091 621.306 340.998C621.306 431.906 620.906 442.554 619.31 478.491Z" fill="white"/>
<path d="M341.931 165.709C245.305 165.709 166.906 244.102 166.906 340.734C166.906 437.366 245.305 515.759 341.931 515.759C438.563 515.759 516.956 437.366 516.956 340.734C516.956 244.102 438.563 165.709 341.931 165.709ZM341.931 454.268C279.245 454.268 228.397 403.426 228.397 340.734C228.397 278.042 279.245 227.2 341.931 227.2C404.623 227.2 455.466 278.042 455.466 340.734C455.466 403.426 404.623 454.268 341.931 454.268Z" fill="white"/>
<path d="M564.741 158.788C564.741 181.352 546.446 199.648 523.876 199.648C501.312 199.648 483.016 181.352 483.016 158.788C483.016 136.218 501.312 117.928 523.876 117.928C546.446 117.928 564.741 136.218 564.741 158.788Z" fill="white"/>
</g>
<defs>
<clipPath id="clip0_1109_68">
<rect width="681.333" height="681.333" fill="white"/>
</clipPath>
</defs>
</svg>
