<svg width="108" height="30" viewBox="0 0 108 30" fill="none" xmlns="http://www.w3.org/2000/svg">
<path d="M17.9205 29.0002L8.68047 17.2402L6.00047 20.1202V29.0002H0.480469V6.00024L6.00047 1.00017V13.0802L17.1205 1.00017H23.9205L12.4005 13.2802L24.6405 29.0002H17.9205ZM35.6339 29.3202C33.5273 29.3202 31.6606 28.8802 30.0339 28.0002C28.4339 27.0935 27.1806 25.8402 26.2739 24.2402C25.3939 22.6135 24.9539 20.7335 24.9539 18.6002V11.4002C24.9539 9.26684 25.3939 7.40018 26.2739 5.80018C27.1806 4.17351 28.4339 2.92018 30.0339 2.04018C31.6606 1.13351 33.5273 0.680176 35.6339 0.680176H39.8739C41.9806 0.680176 43.8339 1.13351 45.4339 2.04018C47.0606 2.92018 48.3139 4.17351 49.1939 5.80018C50.1006 7.40018 50.5539 9.26684 50.5539 11.4002V18.6002C50.5539 20.7335 50.1006 22.6135 49.1939 24.2402C48.3139 25.8402 47.0606 27.0935 45.4339 28.0002C43.8339 28.8802 41.9806 29.3202 39.8739 29.3202H35.6339ZM39.8739 24.4402C41.4206 24.4402 42.6606 23.8802 43.5939 22.7602C44.5539 21.6402 45.0339 20.1735 45.0339 18.3602V11.6402C45.0339 9.82685 44.5539 8.36018 43.5939 7.24018C42.6606 6.12018 41.4206 5.56018 39.8739 5.56018H35.6339C34.0873 5.56018 32.8339 6.12018 31.8739 7.24018C30.9406 8.36018 30.4739 9.82685 30.4739 11.6402V18.3602C30.4739 20.1735 30.9406 21.6402 31.8739 22.7602C32.8339 23.8802 34.0873 24.4402 35.6339 24.4402H39.8739ZM64.4593 29.3202C62.4859 29.3202 60.7526 28.9069 59.2593 28.0802C57.7659 27.2269 56.6059 26.0402 55.7793 24.5202C54.9526 23.0002 54.5393 21.2402 54.5393 19.2402V1.00017H60.0593V19.0802C60.0593 20.6802 60.4593 21.9735 61.2593 22.9602C62.0859 23.9469 63.1526 24.4402 64.4593 24.4402H68.6993C70.0326 24.4402 71.1126 23.9469 71.9393 22.9602C72.7659 21.9735 73.1793 20.6802 73.1793 19.0802L78.5005 21.0002C78.5005 23.0002 78.2859 23.0002 77.4593 24.5202C76.6326 26.0402 75.4593 27.2269 73.9393 28.0802C72.4193 28.9069 70.6726 29.3202 68.6993 29.3202H64.4593ZM73.1005 1.00017H78.5005L91.8485 20.0402V1.00017H97.2485V29.0002H92.3285L78.5005 9.96018V19.0802L73.1005 17.0002V1.00017Z" fill="url(#paint0_linear_484_438)"/>
<defs>
<linearGradient id="paint0_linear_484_438" x1="-1.99953" y1="14.0002" x2="91.8503" y2="14.0002" gradientUnits="userSpaceOnUse">
<stop stop-color="white"/>
</linearGradient>
</defs>
</svg>
