<svg width="59" height="52" viewBox="0 0 59 52" fill="none" xmlns="http://www.w3.org/2000/svg">
<path d="M29.5005 48.4865C29.3768 48.4865 29.2547 48.4611 29.144 48.4123C29.0333 48.3635 28.937 48.2927 28.8627 48.2054L1.7546 16.5838C1.66462 16.4796 1.60948 16.3553 1.59539 16.2249C1.5813 16.0945 1.60883 15.9633 1.67487 15.846C1.74173 15.729 1.84435 15.6309 1.97114 15.5626C2.09793 15.4943 2.24385 15.4586 2.39244 15.4595H56.6087C56.7572 15.4586 56.9032 15.4943 57.03 15.5626C57.1567 15.6309 57.2594 15.729 57.3262 15.846C57.3923 15.9633 57.4198 16.0945 57.4057 16.2249C57.3916 16.3553 57.3365 16.4796 57.2465 16.5838L30.1384 48.2054C30.0641 48.2927 29.9678 48.3635 29.8571 48.4123C29.7464 48.4611 29.6243 48.4865 29.5005 48.4865ZM3.98703 16.8649L29.5005 46.6173L55.0141 16.8649H3.98703Z" fill="url(#paint0_linear_808_2)"/>
<path d="M29.4991 48.4865C29.3362 48.487 29.177 48.4434 29.043 48.3618C28.909 48.2801 28.8066 48.1642 28.7496 48.0297L15.1956 16.4081C15.1511 16.3016 15.1365 16.1871 15.1532 16.0745C15.1698 15.9619 15.2172 15.8546 15.2912 15.7616C15.3645 15.6686 15.4622 15.5925 15.5761 15.5398C15.6899 15.4872 15.8165 15.4597 15.945 15.4595H43.0531C43.1817 15.4597 43.3083 15.4872 43.4221 15.5398C43.5359 15.5925 43.6336 15.6686 43.7069 15.7616C43.7809 15.8546 43.8283 15.9619 43.845 16.0745C43.8616 16.1871 43.8471 16.3016 43.8026 16.4081L30.2485 48.0297C30.1915 48.1642 30.0891 48.2801 29.9551 48.3618C29.8211 48.4434 29.662 48.487 29.4991 48.4865ZM17.1011 16.8649L29.4991 45.7951L41.897 16.8649H17.1011Z" fill="url(#paint1_linear_808_2)"/>
<path d="M56.6091 16.865H2.39286C2.25214 16.865 2.11392 16.8322 1.99226 16.7698C1.8706 16.7075 1.76983 16.6179 1.70019 16.5101C1.63054 16.4023 1.5945 16.2802 1.59573 16.1562C1.59696 16.0322 1.63542 15.9106 1.70719 15.8039L9.68016 3.858C9.75072 3.7531 9.85105 3.66619 9.97127 3.60582C10.0915 3.54545 10.2275 3.51369 10.3658 3.51367H48.6361C48.7745 3.51369 48.9104 3.54545 49.0307 3.60582C49.1509 3.66619 49.2512 3.7531 49.3218 3.858L57.2948 15.8039C57.3665 15.9106 57.405 16.0322 57.4062 16.1562C57.4074 16.2802 57.3714 16.4023 57.3018 16.5101C57.2321 16.6179 57.1313 16.7075 57.0097 16.7698C56.888 16.8322 56.7498 16.865 56.6091 16.865ZM3.78813 15.4596H55.2138L48.1816 4.91908H10.8203L3.78813 15.4596Z" fill="url(#paint2_linear_808_2)"/>
<path d="M43.0548 16.8651H15.9467C15.8132 16.8649 15.682 16.8352 15.565 16.7787C15.448 16.7222 15.349 16.6408 15.2769 16.5418C15.1995 16.4388 15.1544 16.3195 15.146 16.1961C15.1376 16.0728 15.1662 15.9496 15.2291 15.8391L21.6075 3.89318C21.6754 3.77754 21.7785 3.68082 21.9052 3.61381C22.0319 3.54681 22.1773 3.51215 22.325 3.51372H36.6764C36.8267 3.5141 36.9738 3.5519 37.1007 3.62277C37.2277 3.69363 37.3293 3.79468 37.3939 3.91426L43.7723 15.8602C43.8352 15.9707 43.8638 16.0938 43.8554 16.2172C43.847 16.3406 43.8019 16.4598 43.7245 16.5629C43.6497 16.658 43.5494 16.7353 43.4326 16.788C43.3158 16.8407 43.186 16.8672 43.0548 16.8651ZM17.2064 15.4597H41.795L36.1741 4.91913H22.8273L17.2064 15.4597Z" fill="url(#paint3_linear_808_2)"/>
<defs>
<linearGradient id="paint0_linear_808_2" x1="29.5005" y1="15.4595" x2="29.5005" y2="48.4865" gradientUnits="userSpaceOnUse">
<stop stop-color="#0E21A0"/>
<stop offset="1" stop-color="#EC53B0"/>
</linearGradient>
<linearGradient id="paint1_linear_808_2" x1="29.4991" y1="15.4595" x2="29.4991" y2="48.4865" gradientUnits="userSpaceOnUse">
<stop stop-color="#0E21A0"/>
<stop offset="1" stop-color="#EC53B0"/>
</linearGradient>
<linearGradient id="paint2_linear_808_2" x1="29.501" y1="3.51367" x2="29.501" y2="16.865" gradientUnits="userSpaceOnUse">
<stop stop-color="#0E21A0"/>
<stop offset="1" stop-color="#EC53B0"/>
</linearGradient>
<linearGradient id="paint3_linear_808_2" x1="29.5007" y1="3.51367" x2="29.5007" y2="16.8652" gradientUnits="userSpaceOnUse">
<stop stop-color="#0E21A0"/>
<stop offset="1" stop-color="#EC53B0"/>
</linearGradient>
</defs>
</svg>
