<svg width="637" height="512" viewBox="0 0 637 512" fill="none" xmlns="http://www.w3.org/2000/svg">
<path d="M412.835 73.0479C459.628 73.0479 502.349 90.4433 534.907 119.118C515.291 120.806 499.896 137.264 499.896 157.318C499.896 160.388 501.012 163.414 502.617 166.397C504.227 169.388 506.455 172.562 508.915 175.938C509.495 176.734 510.091 177.546 510.698 178.373C515.295 184.634 520.58 191.832 525.113 200.682C535.278 220.528 541.752 248.893 526.091 292.604L526.088 292.612L526.084 292.621L504.204 355.148L440.355 174.66H463.868H466.368V172.16V154.006V151.506H463.868H348.36H345.86V154.006V172.16V174.66H348.36H372.677L401.048 254.86L365.953 355.149L302.103 174.66H320.787H323.287H323.289V172.16H325.787V154.006V151.506H323.287H261.697C295.147 104.047 350.369 73.0479 412.835 73.0479Z" stroke="url(#paint0_linear_1090_67)" stroke-width="5"/>
<path d="M320.474 417.908C265.222 385.958 228.049 326.241 228.049 257.837C228.049 234.42 232.408 212.027 240.351 191.417L320.474 417.908Z" stroke="url(#paint1_linear_1090_67)" stroke-width="5"/>
<path d="M577.858 214.348H576.701C579.269 202.128 580.305 189.959 579.732 178.433C591.199 202.488 597.623 229.408 597.623 257.836C597.623 326.134 560.565 385.773 505.455 417.759L567.647 243.526C570.058 237.621 572.187 231.6 573.885 225.699L576.694 217.674L577.858 214.348Z" stroke="url(#paint2_linear_1090_67)" stroke-width="5"/>
<path d="M412.836 442.624C393.865 442.624 375.57 439.754 358.347 434.445L413.214 289.254L464.843 435.199C448.349 440.029 430.898 442.624 412.836 442.624Z" stroke="url(#paint3_linear_1090_67)" stroke-width="5"/>
<path d="M412.836 36.5C471.962 36.5 527.537 59.5196 569.345 101.328C611.153 143.136 634.173 198.71 634.174 257.837C634.174 316.962 611.154 372.537 569.346 414.345C527.537 456.153 471.963 479.173 412.837 479.173C353.711 479.173 298.136 456.153 256.328 414.345C214.52 372.537 191.5 316.963 191.5 257.837C191.5 198.71 214.52 143.136 256.328 101.328C298.136 59.5196 353.71 36.5 412.836 36.5ZM202.29 257.837C202.29 373.935 296.738 468.383 412.836 468.383C528.935 468.383 623.382 373.935 623.382 257.837C623.382 141.739 528.934 47.29 412.836 47.29C296.738 47.29 202.29 141.739 202.29 257.837Z" stroke="url(#paint4_linear_1090_67)" stroke-width="5"/>
<path d="M90.5 32.5L316 61.5L350 95H392.5L456.5 512H12L90.5 32.5Z" fill="white"/>
<path d="M352.572 93.7088C352.511 97.7083 352.511 97.7083 352.512 97.7083L352.513 97.7084L352.518 97.7084L352.537 97.7087L352.615 97.7099L352.92 97.7146L354.078 97.7324C355.077 97.7479 356.506 97.7701 358.226 97.7973C361.668 97.8517 366.275 97.9258 370.94 98.0047C375.606 98.0837 380.327 98.1675 383.995 98.2412C385.831 98.2781 387.397 98.3124 388.56 98.3422C389.142 98.3571 389.616 98.3707 389.968 98.3828C390.345 98.3957 390.496 98.4042 390.508 98.4048L390.509 98.4049C390.546 98.4079 390.639 98.4235 390.764 98.4747C390.886 98.5246 391 98.593 391.093 98.6701C391.183 98.7451 391.241 98.8179 391.278 98.8808C391.311 98.9382 391.343 99.0143 391.359 99.1319C391.55 100.523 405.559 195.393 419.513 289.869C426.495 337.139 433.466 384.328 438.691 419.7L445.003 462.427L446.771 474.393L446.866 475.036L314.734 507.915L4.4579 454.2L5.58403 445.482C6.61403 437.509 8.08705 426.108 9.85914 412.394C13.4033 384.965 18.1437 348.288 22.9286 311.29C32.5014 237.272 42.2451 162.028 42.9543 156.927C43.4329 153.485 43.7849 151.167 44.2439 149.424C44.683 147.758 45.1386 146.959 45.6273 146.419C46.1436 145.848 47.0048 145.225 48.8486 144.442C50.7248 143.645 53.2454 142.829 56.8846 141.686C57.3658 141.535 77.2392 135.373 105.65 126.565L108.075 125.814L108.427 123.299C111.379 102.174 121.845 74.5772 135.676 52.5884L135.676 52.5881C155.359 21.2917 179.001 4.67665 201.857 4.02087L201.86 4.02079C213.607 3.6758 223.204 7.61748 230.732 15.6837L230.732 15.6843C231.249 16.2381 231.759 16.8383 232.31 17.5035L233.654 19.1266L235.754 18.935L235.879 18.9235L235.516 14.9401L235.879 18.9235C237.195 18.8034 238.297 18.7056 239.372 18.7056H239.433C256.778 18.7318 271.458 28.5219 281.79 48.2523L285.333 46.3966L281.79 48.2524C285.009 54.3988 287.282 60.5467 288.831 65.5831L290.009 69.4152L293.838 68.2284C303.461 65.246 309.086 63.5022 309.083 63.5029L309.085 63.5026C309.904 63.261 311.516 62.9465 313.143 62.9955C314.858 63.0471 315.84 63.4717 316.286 63.9186C317.817 65.4516 326.213 73.6368 334.182 81.3965C338.177 85.2858 342.077 89.0808 344.979 91.9034C346.429 93.3148 347.631 94.483 348.469 95.2985L349.441 96.2434L349.696 96.4916L349.761 96.5552L349.778 96.5713L349.782 96.5753L349.783 96.5763C349.783 96.5766 349.784 96.5767 352.572 93.7088ZM352.572 93.7088L352.511 97.7083L350.923 97.6842L349.784 96.5767L352.572 93.7088ZM123.154 112.762C133.101 73.0641 165.397 17.5847 202.219 16.5246M118.194 116.439L116.767 123.118L123.29 121.095L131.237 118.632L131.237 118.632L131.434 118.571L131.434 118.571C142.608 115.106 154.43 111.441 166.465 107.71L168.761 106.999L169.21 104.636C173.907 79.9097 185.686 54.4039 200.809 38.1625C206.612 31.9322 212.729 27.2288 218.965 23.9867L225.009 20.845L219.321 17.0974C214.35 13.8221 208.622 12.3894 202.135 12.5254L202.12 12.5258L202.104 12.5262C180.993 13.134 162.093 29.7635 147.749 50.0578C133.253 70.5667 122.565 95.9799 118.194 116.439ZM194.955 32.7105L194.954 32.7108C179.099 49.7384 167.024 75.6205 161.821 100.775C150.572 104.262 139.534 107.684 129.065 110.929C129.065 110.929 129.065 110.929 129.065 110.929L128.868 110.99L128.868 110.99L127.649 111.368C132.519 93.2666 141.974 72.088 154.282 54.6753C168.301 34.8398 185.194 21.0245 202.318 20.5234C204.515 20.4783 206.515 20.6576 208.351 21.0522C203.699 24.2413 199.217 28.1342 194.955 32.7105ZM237.157 85.7974L239.937 84.9357L239.972 82.0252C240.139 68.2024 238.678 47.1368 231.401 31.9565L229.765 28.5437L226.267 29.9886C218.244 33.3024 211.629 39.0205 207.019 43.9706L207.019 43.9707C194.627 57.2786 184.739 77.3196 179.532 97.2622L177.714 104.224L184.586 102.093C192.266 99.7129 199.936 97.3354 207.483 94.9958C217.69 91.8317 227.673 88.7369 237.157 85.7974ZM248.444 76.9289L248.522 82.2746L253.629 80.6913C262.568 77.9194 270.821 75.3614 278.066 73.1165L281.879 71.9349L280.705 68.1195C278.691 61.5743 275.251 52.6343 269.761 44.7965C264.273 36.9595 256.463 29.8541 245.664 27.8057L238.589 26.4638L241.188 33.1792C246.779 47.6273 248.264 64.5422 248.444 76.9289ZM231.982 79.026C223.35 81.7016 214.334 84.4966 205.136 87.3478C199.907 88.9686 194.62 90.6075 189.312 92.2531C194.583 75.7348 202.998 60.028 212.874 49.4226C216.29 45.7539 220.707 41.8674 225.773 39.0888C230.492 51.2323 231.912 66.9364 231.982 79.026ZM271.806 66.6808C266.991 68.1731 261.792 69.7845 256.292 71.4897C255.875 61.6405 254.587 49.6694 251.297 38.2065C255.998 40.7381 259.928 44.7021 263.209 49.3858C267.086 54.922 269.878 61.2237 271.806 66.6808Z" stroke="url(#paint5_linear_1090_67)" stroke-width="8"/>
<path d="M352.573 93.7086L349.784 96.5765L350.923 97.684L352.512 97.7081L352.573 93.7086ZM352.573 93.7086C349.784 96.5765 349.784 96.5764 349.784 96.5762L349.783 96.5751L349.779 96.5711L349.762 96.555L349.697 96.4914L349.441 96.2432L348.47 95.2983C347.631 94.4829 346.43 93.3146 344.979 91.9033C342.077 89.0806 338.177 85.2856 334.183 81.3963C328.368 75.7352 322.327 69.8476 318.891 66.4819L318.899 506.88L446.867 475.035L446.772 474.392L445.004 462.427L438.692 419.7C433.467 384.328 426.496 337.139 419.514 289.869C405.554 195.357 391.54 100.453 391.36 99.1317C391.344 99.0141 391.312 98.938 391.278 98.8807C391.242 98.8177 391.184 98.745 391.093 98.6699C391 98.5928 390.887 98.5245 390.764 98.4745C390.64 98.4234 390.546 98.4078 390.509 98.4047C390.51 98.4047 390.363 98.3961 389.969 98.3826C389.616 98.3705 389.143 98.3569 388.56 98.342C387.398 98.3122 385.831 98.2779 383.996 98.2411C380.327 98.1673 375.607 98.0835 370.941 98.0045C366.275 97.9256 361.668 97.8515 358.227 97.7971C356.506 97.7699 355.077 97.7477 354.079 97.7322L352.92 97.7144L352.616 97.7097L352.538 97.7085L352.518 97.7082L352.513 97.7082L352.512 97.7082C352.512 97.7081 352.512 97.7081 352.573 93.7086Z" stroke="url(#paint6_linear_1090_67)" stroke-width="8"/>
<path d="M220.693 218.672C218.693 217.961 216.069 217.112 212.959 216.295C205.653 214.376 195.546 212.603 184.509 213.301C168.255 214.329 159.192 220.075 154.437 227.054C149.815 233.838 149.839 240.978 150.014 243.761C150.55 252.26 156.525 258.553 163.5 263.909C167.065 266.646 171.153 269.328 175.387 272.054C176.08 272.501 176.778 272.949 177.48 273.399C181.104 275.726 184.828 278.116 188.569 280.703C206.349 292.995 223.529 309.038 225.374 338.293C226.863 361.905 220.6 381.465 209.24 395.381C197.895 409.281 181.251 417.823 161.4 419.078C137.191 420.608 118.482 414.227 105.839 407.499C99.5105 404.131 94.7026 400.675 91.497 398.082C90.1364 396.982 89.0665 396.038 88.2938 395.325L97.0602 357.986C100.093 359.982 104.357 362.618 109.338 365.215C119.196 370.354 132.531 375.701 144.801 374.926L144.801 374.926C153.238 374.392 159.256 370.619 163.01 365.547C166.672 360.599 168.055 354.596 167.738 349.563L167.738 349.563C167.111 339.632 162.508 332.393 156.348 326.364C151.818 321.93 146.183 317.928 140.592 313.957C138.827 312.703 137.066 311.452 135.345 310.192C127.982 304.798 120.904 298.947 115.422 291.14C109.989 283.402 106.007 273.571 105.156 260.067C103.705 237.063 110.527 214.019 125.917 196.224C141.27 178.47 165.4 165.652 199.123 163.52C212.089 162.701 221.809 163.953 228.213 165.37C230.865 165.957 232.952 166.573 234.468 167.084L220.693 218.672Z" fill="white" stroke="url(#paint7_linear_1090_67)" stroke-width="8"/>
<defs>
<linearGradient id="paint0_linear_1090_67" x1="399.16" y1="70.5479" x2="399.16" y2="362.681" gradientUnits="userSpaceOnUse">
<stop stop-color="#0E21A0"/>
<stop offset="1" stop-color="#EC53B0"/>
</linearGradient>
<linearGradient id="paint1_linear_1090_67" x1="275.29" y1="184.376" x2="275.29" y2="423.295" gradientUnits="userSpaceOnUse">
<stop stop-color="#0E21A0"/>
<stop offset="1" stop-color="#EC53B0"/>
</linearGradient>
<linearGradient id="paint2_linear_1090_67" x1="550.495" y1="165.547" x2="550.495" y2="423.174" gradientUnits="userSpaceOnUse">
<stop stop-color="#0E21A0"/>
<stop offset="1" stop-color="#EC53B0"/>
</linearGradient>
<linearGradient id="paint3_linear_1090_67" x1="411.575" y1="281.977" x2="411.575" y2="445.124" gradientUnits="userSpaceOnUse">
<stop stop-color="#0E21A0"/>
<stop offset="1" stop-color="#EC53B0"/>
</linearGradient>
<linearGradient id="paint4_linear_1090_67" x1="412.837" y1="34" x2="412.837" y2="481.673" gradientUnits="userSpaceOnUse">
<stop stop-color="#0E21A0"/>
<stop offset="1" stop-color="#EC53B0"/>
</linearGradient>
<linearGradient id="paint5_linear_1090_67" x1="17.5" y1="256" x2="451" y2="256" gradientUnits="userSpaceOnUse">
<stop stop-color="#0E21A0"/>
<stop offset="1" stop-color="#EC53B0"/>
</linearGradient>
<linearGradient id="paint6_linear_1090_67" x1="17" y1="286" x2="432.5" y2="286" gradientUnits="userSpaceOnUse">
<stop stop-color="#0E21A0"/>
<stop offset="1" stop-color="#EC53B0"/>
</linearGradient>
<linearGradient id="paint7_linear_1090_67" x1="24.5" y1="291" x2="312.5" y2="291" gradientUnits="userSpaceOnUse">
<stop stop-color="#0E21A0"/>
<stop offset="1" stop-color="#EC53B0"/>
</linearGradient>
</defs>
</svg>
