<svg width="677" height="512" viewBox="0 0 677 512" fill="none" xmlns="http://www.w3.org/2000/svg">
<path d="M452.835 73.0479C499.628 73.0479 542.349 90.4433 574.907 119.118C555.291 120.806 539.896 137.264 539.896 157.318C539.896 160.388 541.012 163.414 542.617 166.397C544.227 169.388 546.455 172.562 548.915 175.938C549.495 176.734 550.091 177.546 550.698 178.373C555.295 184.634 560.58 191.832 565.113 200.682C575.278 220.528 581.752 248.893 566.091 292.604L566.088 292.612L566.084 292.621L544.204 355.148L480.355 174.66H503.868H506.368V172.16V154.006V151.506H503.868H388.36H385.86V154.006V172.16V174.66H388.36H412.677L441.048 254.86L405.953 355.149L342.103 174.66H360.787H363.287H363.289V172.16H365.787V154.006V151.506H363.287H301.697C335.147 104.047 390.369 73.0479 452.835 73.0479Z" stroke="url(#paint0_linear_1090_49)" stroke-width="5"/>
<path d="M360.474 417.908C305.222 385.958 268.049 326.241 268.049 257.837C268.049 234.42 272.408 212.027 280.351 191.417L360.474 417.908Z" stroke="url(#paint1_linear_1090_49)" stroke-width="5"/>
<path d="M617.858 214.348H616.701C619.269 202.128 620.305 189.959 619.732 178.433C631.199 202.488 637.623 229.408 637.623 257.836C637.623 326.134 600.565 385.773 545.455 417.759L607.647 243.526C610.058 237.621 612.187 231.6 613.885 225.699L616.694 217.674L617.858 214.348Z" stroke="url(#paint2_linear_1090_49)" stroke-width="5"/>
<path d="M452.836 442.624C433.865 442.624 415.57 439.754 398.347 434.445L453.214 289.254L504.843 435.199C488.349 440.029 470.898 442.624 452.836 442.624Z" stroke="url(#paint3_linear_1090_49)" stroke-width="5"/>
<path d="M452.836 36.5C511.962 36.5 567.537 59.5196 609.345 101.328C651.153 143.136 674.173 198.71 674.174 257.837C674.174 316.962 651.154 372.537 609.346 414.345C567.537 456.153 511.963 479.173 452.837 479.173C393.711 479.173 338.136 456.153 296.328 414.345C254.52 372.537 231.5 316.963 231.5 257.837C231.5 198.71 254.52 143.136 296.328 101.328C338.136 59.5196 393.71 36.5 452.836 36.5ZM242.29 257.837C242.29 373.935 336.738 468.383 452.836 468.383C568.935 468.383 663.382 373.935 663.382 257.837C663.382 141.739 568.934 47.29 452.836 47.29C336.738 47.29 242.29 141.739 242.29 257.837Z" stroke="url(#paint4_linear_1090_49)" stroke-width="5"/>
<path d="M90.5 32.5L316 61.5L350 95H392.5L456.5 512H12L90.5 32.5Z" fill="white"/>
<path d="M352.572 93.7088C352.534 96.2085 352.534 96.2085 352.534 96.2085L352.536 96.2085L352.541 96.2086L352.56 96.2089L352.638 96.2101L352.943 96.2148L354.101 96.2326C355.1 96.2481 356.529 96.2703 358.25 96.2975C361.692 96.3518 366.299 96.426 370.965 96.5049C375.632 96.5839 380.354 96.6677 384.025 96.7415C385.862 96.7784 387.431 96.8128 388.598 96.8427C389.182 96.8576 389.661 96.8714 390.02 96.8837C390.199 96.8898 390.344 96.8954 390.455 96.9004C390.51 96.903 390.553 96.9052 390.586 96.9071C390.611 96.9085 390.625 96.9094 390.631 96.9099L390.634 96.9101C391.624 96.9929 392.687 97.7711 392.845 98.9286C393.031 100.283 407.039 195.15 420.997 289.65C427.979 336.92 434.95 384.109 440.175 419.481L446.487 462.208L448.255 474.173L448.549 476.163L314.789 509.447L2.78618 455.433L2.90164 454.539L4.09639 445.29C5.12639 437.317 6.59942 425.915 8.37151 412.201C11.9157 384.773 16.6561 348.096 21.441 311.097C31.0127 237.087 40.7581 161.831 41.4686 156.72C41.9442 153.299 42.3072 150.888 42.7934 149.042C43.2671 147.244 43.8075 146.195 44.5148 145.413C45.2393 144.612 46.3256 143.884 48.2621 143.061C50.2186 142.23 52.8137 141.393 56.4338 140.255C56.8592 140.122 76.7544 133.953 105.206 125.133L106.721 124.663L106.941 123.091C109.928 101.724 120.481 73.929 134.406 51.7897L134.406 51.7896C154.21 20.2998 178.237 3.19798 201.814 2.52148L201.816 2.52144C213.971 2.16444 223.991 6.26299 231.828 14.6603L231.829 14.6606C232.377 15.2479 232.909 15.8758 233.465 16.5465L234.305 17.561L235.617 17.4412L235.743 17.4297C237.047 17.3107 238.217 17.2056 239.372 17.2056L239.433 17.2056C239.433 17.2056 239.434 17.2056 239.434 17.2056C257.469 17.2324 272.595 27.4608 283.118 47.5564L285.333 46.3966L283.118 47.5565C286.391 53.8055 288.697 60.0438 290.264 65.1423L291.001 67.5374L293.394 66.7956C298.187 65.3101 302.004 64.1271 304.626 63.3142C307.271 62.4944 308.666 62.0622 308.66 62.0639L308.661 62.0637C309.6 61.7868 311.372 61.4415 313.188 61.4962C315.058 61.5525 316.505 62.0147 317.348 62.8589C318.868 64.3819 327.252 72.5554 335.229 80.3218C339.223 84.2109 343.123 88.0057 346.024 90.8282L347.583 92.3443L349.515 94.2232L350.486 95.1679L350.742 95.4162L350.807 95.4797L350.824 95.4958L350.828 95.4999L350.829 95.5009C350.829 95.5011 350.829 95.5012 352.572 93.7088ZM352.572 93.7088L352.534 96.2085L351.541 96.1934L350.829 95.5012L352.572 93.7088ZM122.74 114.461C132.175 74.6674 164.869 17.5999 202.219 16.5246M119.661 116.753L118.769 120.927L122.846 119.663L130.793 117.199L130.99 117.138L130.25 114.75L130.99 117.138C142.164 113.674 153.986 110.008 166.021 106.278L167.456 105.833L167.736 104.356C172.475 79.4121 184.357 53.6296 199.711 37.1404C205.615 30.8014 211.866 25.9867 218.273 22.6558L222.051 20.6922L218.496 18.35C213.82 15.2691 208.402 13.8943 202.167 14.0251L202.157 14.0253L202.147 14.0256C181.783 14.6119 163.258 30.7141 148.974 50.9236C134.595 71.2671 123.989 96.4925 119.661 116.753ZM196.052 33.7328L196.052 33.733C180.239 50.7156 168.172 76.7318 163.113 101.944C151.571 105.522 140.241 109.035 129.509 112.362L129.313 112.423L130.053 114.811L129.313 112.423L125.522 113.598C130.206 94.7699 140.05 72.2119 153.057 53.8095C167.138 33.8867 184.409 19.5435 202.281 19.0238C205.909 18.9488 209.077 19.4583 211.885 20.5395C206.374 23.9443 201.066 28.3495 196.052 33.7328ZM236.712 84.3647L238.45 83.8261L238.472 82.007C238.639 68.2295 237.169 47.4577 230.049 32.6049L229.026 30.4719L226.84 31.375C219.092 34.5752 212.648 40.1268 208.117 44.9929L209.946 46.6967L208.117 44.993C195.935 58.0747 186.145 77.8728 180.983 97.6412L179.847 101.992L184.142 100.661C191.837 98.2756 199.52 95.8937 207.082 93.5498C217.274 90.3903 227.242 87.3 236.712 84.3647ZM249.944 76.9071L249.993 80.2482L253.184 79.2586C262.124 76.4866 270.377 73.9287 277.622 71.6837L280.005 70.9452L279.271 68.5606C277.28 62.089 273.896 53.3145 268.533 45.657C263.17 38 255.659 31.2283 245.384 29.2794L240.963 28.4407L242.587 32.6378C248.273 47.3316 249.763 64.455 249.944 76.9071ZM226.544 36.9963C232.026 49.9758 233.496 67.3532 233.484 80.1306C224.518 82.9097 215.126 85.8214 205.536 88.794C199.432 90.6864 193.247 92.6036 187.042 94.5271C192.285 76.8633 201.17 59.7898 211.776 48.4003C215.58 44.3158 220.653 39.9056 226.544 36.9963ZM273.729 67.6555C267.971 69.4397 261.635 71.4038 254.866 73.5023C254.513 62.4785 253.098 48.4389 248.888 35.4518C255.286 37.9037 260.39 42.7458 264.437 48.5253C268.773 54.7163 271.766 61.8049 273.729 67.6555Z" stroke="url(#paint5_linear_1090_49)" stroke-width="5"/>
<path d="M352.573 93.7086L350.83 95.501L351.542 96.1932L352.534 96.2083L352.573 93.7086ZM352.573 93.7086C350.83 95.501 350.83 95.5009 350.829 95.5007L350.828 95.4997L350.824 95.4956L350.808 95.4796L350.742 95.416L350.487 95.1678L349.515 94.223C348.677 93.4076 347.476 92.2393 346.025 90.8281C343.123 88.0055 339.223 84.2107 335.229 80.3216C327.324 72.6243 319.018 64.5269 317.391 62.9009L317.399 508.799L448.549 476.162L448.256 474.173L446.488 462.208L440.176 419.48C434.95 384.109 427.98 336.92 420.998 289.65C407.037 195.127 393.025 100.239 392.846 98.9285C392.687 97.7709 391.624 96.9927 390.634 96.9099L390.634 96.9099C390.632 96.9098 390.618 96.9087 390.587 96.9069C390.554 96.905 390.51 96.9028 390.455 96.9003C390.345 96.8952 390.2 96.8896 390.02 96.8835C389.661 96.8712 389.183 96.8575 388.599 96.8425C387.432 96.8126 385.862 96.7783 384.026 96.7414C380.355 96.6676 375.632 96.5837 370.966 96.5048C366.3 96.4258 361.692 96.3517 358.25 96.2973C356.53 96.2701 355.101 96.2479 354.102 96.2324L352.943 96.2146L352.639 96.2099L352.561 96.2087L352.541 96.2084L352.536 96.2083L352.535 96.2083C352.535 96.2083 352.534 96.2083 352.573 93.7086Z" stroke="url(#paint6_linear_1090_49)" stroke-width="5"/>
<path d="M221.718 220.646C221.547 220.581 221.367 220.514 221.181 220.445C219.131 219.686 216.188 218.694 212.578 217.746C205.371 215.853 195.432 214.114 184.603 214.798L184.761 217.293L184.603 214.798C168.682 215.805 160.105 221.398 155.677 227.898C151.331 234.277 151.344 241.015 151.511 243.666L154.006 243.509L151.511 243.666C152.003 251.467 157.49 257.403 164.414 262.719C167.924 265.414 171.963 268.065 176.199 270.793C176.889 271.238 177.585 271.684 178.286 272.134C181.909 274.46 185.658 276.867 189.422 279.469C207.337 291.855 224.983 308.255 226.871 338.199C228.38 362.129 222.036 382.078 210.402 396.33C198.778 410.571 181.738 419.295 161.494 420.575C136.96 422.125 117.976 415.657 105.134 408.823C98.7091 405.403 93.8219 401.892 90.5537 399.249C88.9201 397.927 87.6928 396.824 86.882 396.06C86.795 395.978 86.7128 395.9 86.6355 395.826L96.095 355.534C96.614 355.888 97.1921 356.276 97.8244 356.693C100.829 358.673 105.073 361.3 110.031 363.885C119.841 368.999 132.866 374.177 144.707 373.429L144.549 370.933L144.707 373.428C152.705 372.923 158.315 369.369 161.804 364.655C165.236 360.018 166.538 354.372 166.241 349.657C165.644 340.204 161.282 333.292 155.299 327.436C150.861 323.092 145.366 319.189 139.798 315.234C138.015 313.967 136.224 312.695 134.459 311.402C127.059 305.981 119.82 300.013 114.195 292.002C108.6 284.034 104.527 273.936 103.659 260.162C102.185 236.805 109.111 213.364 124.782 195.243C140.43 177.148 164.955 164.177 199.028 162.023C212.14 161.195 222.001 162.459 228.537 163.906C231.807 164.629 234.248 165.399 235.851 165.978C235.999 166.032 236.141 166.084 236.275 166.134L221.718 220.646Z" fill="white" stroke="url(#paint7_linear_1090_49)" stroke-width="5"/>
<defs>
<linearGradient id="paint0_linear_1090_49" x1="439.16" y1="70.5479" x2="439.16" y2="362.681" gradientUnits="userSpaceOnUse">
<stop stop-color="#0E21A0"/>
<stop offset="1" stop-color="#EC53B0"/>
</linearGradient>
<linearGradient id="paint1_linear_1090_49" x1="315.29" y1="184.376" x2="315.29" y2="423.295" gradientUnits="userSpaceOnUse">
<stop stop-color="#0E21A0"/>
<stop offset="1" stop-color="#EC53B0"/>
</linearGradient>
<linearGradient id="paint2_linear_1090_49" x1="590.495" y1="165.547" x2="590.495" y2="423.174" gradientUnits="userSpaceOnUse">
<stop stop-color="#0E21A0"/>
<stop offset="1" stop-color="#EC53B0"/>
</linearGradient>
<linearGradient id="paint3_linear_1090_49" x1="451.575" y1="281.977" x2="451.575" y2="445.124" gradientUnits="userSpaceOnUse">
<stop stop-color="#0E21A0"/>
<stop offset="1" stop-color="#EC53B0"/>
</linearGradient>
<linearGradient id="paint4_linear_1090_49" x1="452.837" y1="34" x2="452.837" y2="481.673" gradientUnits="userSpaceOnUse">
<stop stop-color="#0E21A0"/>
<stop offset="1" stop-color="#EC53B0"/>
</linearGradient>
<linearGradient id="paint5_linear_1090_49" x1="17.5" y1="256" x2="451" y2="256" gradientUnits="userSpaceOnUse">
<stop stop-color="#0E21A0"/>
<stop offset="1" stop-color="#EC53B0"/>
</linearGradient>
<linearGradient id="paint6_linear_1090_49" x1="17" y1="286" x2="432.5" y2="286" gradientUnits="userSpaceOnUse">
<stop stop-color="#0E21A0"/>
<stop offset="1" stop-color="#EC53B0"/>
</linearGradient>
<linearGradient id="paint7_linear_1090_49" x1="24.5" y1="291" x2="312.5" y2="291" gradientUnits="userSpaceOnUse">
<stop stop-color="#0E21A0"/>
<stop offset="1" stop-color="#EC53B0"/>
</linearGradient>
</defs>
</svg>
