<svg width="74" height="74" viewBox="0 0 74 74" fill="none" xmlns="http://www.w3.org/2000/svg">
<path d="M2.80002 73L1 71.2V69.4L6.40002 53.2L58.6 1H60.4L73 13.6V15.4L20.8 67.6L4.60002 73H2.80002Z" stroke="#EC53B0" stroke-width="2" stroke-miterlimit="10"/>
<path d="M6.40039 53.2L20.8004 67.6M49.6004 10L64.0004 24.4" stroke="#EC53B0" stroke-width="2"/>
<path d="M22.6 37L1 15.4V13.6L13.6 1H15.4L37 22.6M37 51.4L58.6 73H60.4L73 60.4V58.6L51.4 37" stroke="#EC53B0" stroke-width="2" stroke-miterlimit="10"/>
<path d="M6.40039 20.7999L11.8004 15.3999M13.6004 26.1999L18.1004 21.6999M19.0004 33.3999L24.4004 27.9999" stroke="#EC53B0" stroke-width="2"/>
<path d="M40.5996 55.0001L45.9996 49.6001M47.7996 60.4001L52.2996 55.9001M53.1996 67.6001L58.5996 62.2001" stroke="#EC53B0" stroke-width="2"/>
</svg>
